<?xml version="1.0" encoding="utf-8"?>
<!-- Generator: Adobe Illustrator 16.0.0, SVG Export Plug-In . SVG Version: 6.00 Build 0)  -->
<!DOCTYPE svg PUBLIC "-//W3C//DTD SVG 1.1//EN" "http://www.w3.org/Graphics/SVG/1.1/DTD/svg11.dtd">
<svg version="1.1" id="Layer_1" xmlns="http://www.w3.org/2000/svg" xmlns:xlink="http://www.w3.org/1999/xlink" x="0px" y="0px"
	 width="317.5px" height="320px" viewBox="0 0 317.5 320" enable-background="new 0 0 317.5 320" xml:space="preserve">
<circle fill="#FFFFFF" cx="159.083" cy="159.583" r="150.417"/>
<g>
	<ellipse fill="#808080" cx="160.062" cy="92.711" rx="65.161" ry="73.38"/>
	<path fill="#808080" d="M212.307,165.833h-20.544c0.071,0,0.116-0.639,0.116-0.074c0,11.064-13.877,19.16-30.995,19.16
		c-17.119,0-30.996-7.659-30.996-18.723c0-0.564,0.045-0.363,0.117-0.363h-17.962c-10.893,0-22.542,1.729-22.542,8.178v91.459
		c0,6.449,11.649,15.363,22.542,15.363h100.265c10.894,0,17.193-8.914,17.193-15.363v-91.459
		C229.5,167.562,223.2,165.833,212.307,165.833z"/>
	<path fill="#F2F2F2" d="M125.457,103.833c-0.4,1-0.617,3.25-0.617,5.007c0,9.401,6.176,17.002,13.795,17.002
		s13.795-7.591,13.795-16.993c0-1.757-0.217-4.016-0.617-5.016H125.457z"/>
	<path fill="#F2F2F2" d="M169.132,103.833c-0.401,1-0.618,3.25-0.618,5.007c0,9.401,6.176,17.002,13.795,17.002
		c7.619,0,13.796-7.591,13.796-16.993c0-1.757-0.217-4.016-0.618-5.016H169.132z"/>
	<polyline fill="none" stroke="#F2F2F2" stroke-miterlimit="10" points="95.5,92.333 124.722,92.333 129,69.821 129,93.299 
		152,92.711 152,63.713 159.964,92.711 168.041,93.299 176,63.713 176,94.333 200,94.333 200,74.984 208.502,94.003 225.382,92.581 
			"/>
</g>
<g>
</g>
<g>
</g>
<g>
</g>
<g>
</g>
<g>
</g>
<g>
</g>
<g>
</g>
<g>
</g>
<g>
</g>
<g>
</g>
<g>
</g>
<g>
</g>
<g>
</g>
<g>
</g>
<g>
</g>
</svg>
