<?xml version="1.0" encoding="utf-8"?>
<!-- Generator: Adobe Illustrator 16.0.0, SVG Export Plug-In . SVG Version: 6.00 Build 0)  -->
<!DOCTYPE svg PUBLIC "-//W3C//DTD SVG 1.1//EN" "http://www.w3.org/Graphics/SVG/1.1/DTD/svg11.dtd">
<svg version="1.1" id="Layer_1" xmlns="http://www.w3.org/2000/svg" xmlns:xlink="http://www.w3.org/1999/xlink" x="0px" y="0px"
	 width="317px" height="371px" viewBox="0 0 317 371" enable-background="new 0 0 317 371" xml:space="preserve">
<path fill="none" stroke="#0F6984" stroke-width="60" stroke-miterlimit="10" d="M36.948,162.443"/>
<g>
	<path fill="none" stroke="#0F6984" stroke-width="60" stroke-miterlimit="10" d="M268,110v187c0,13.75-11.25,25-25,25H73
		c-13.75,0-25-11.25-25-25V75c0-13.75,11.25-25,25-25h119"/>
</g>
<line fill="none" stroke="#0F6984" stroke-width="20" stroke-miterlimit="10" x1="226" y1="57" x2="290" y2="57"/>
<line fill="none" stroke="#0F6984" stroke-width="18" stroke-miterlimit="10" x1="258" y1="27" x2="258" y2="90"/>
<g>
	<path fill="#092F38" d="M176.709,223.63l-1.074-9.369h-0.461c-4.146,5.837-12.134,11.059-22.732,11.059
		c-15.052,0-22.732-10.598-22.732-21.35c0-17.971,15.974-27.801,44.697-27.647v-1.536c0-6.144-1.689-17.203-16.896-17.203
		c-6.912,0-14.131,2.15-19.353,5.529l-3.072-8.908c6.144-3.994,15.052-6.604,24.421-6.604c22.732,0,28.261,15.513,28.261,30.411
		v27.801c0,6.451,0.309,12.749,1.229,17.817H176.709z M174.713,185.692c-14.746-0.308-31.487,2.304-31.487,16.741
		c0,8.755,5.837,12.902,12.749,12.902c9.677,0,15.821-6.144,17.971-12.441c0.461-1.382,0.768-2.918,0.768-4.301V185.692z"/>
</g>
<g>
</g>
<g>
</g>
<g>
</g>
<g>
</g>
<g>
</g>
<g>
</g>
<g>
</g>
<g>
</g>
<g>
</g>
<g>
</g>
<g>
</g>
<g>
</g>
<g>
</g>
<g>
</g>
<g>
</g>
</svg>
