<?xml version="1.0" encoding="utf-8"?>
<!-- Generator: Adobe Illustrator 16.0.0, SVG Export Plug-In . SVG Version: 6.00 Build 0)  -->
<!DOCTYPE svg PUBLIC "-//W3C//DTD SVG 1.1//EN" "http://www.w3.org/Graphics/SVG/1.1/DTD/svg11.dtd">
<svg version="1.1" id="Layer_1" xmlns="http://www.w3.org/2000/svg" xmlns:xlink="http://www.w3.org/1999/xlink" x="0px" y="0px"
	 width="317px" height="371px" viewBox="0 0 317 371" enable-background="new 0 0 317 371" xml:space="preserve">
<path fill="none" stroke="#0F6984" stroke-width="60" stroke-miterlimit="10" d="M36.948,162.443"/>
<g>
	<path fill="none" stroke="#0F6984" stroke-width="60" stroke-miterlimit="10" d="M268,110v187c0,13.75-11.25,25-25,25H73
		c-13.75,0-25-11.25-25-25V75c0-13.75,11.25-25,25-25h119"/>
</g>
<line fill="none" stroke="#0F6984" stroke-width="20" stroke-miterlimit="10" x1="226" y1="57" x2="290" y2="57"/>
<line fill="none" stroke="#0F6984" stroke-width="18" stroke-miterlimit="10" x1="258" y1="27" x2="258" y2="90"/>
<g>
	<path fill="#092F38" d="M120.098,173.887c0-5.318-0.106-9.68-0.426-13.935h8.19l0.426,8.297h0.319
		c2.872-4.893,7.659-9.467,16.168-9.467c7.021,0,12.339,4.255,14.573,10.317h0.213c1.595-2.872,3.617-5.105,5.744-6.701
		c3.085-2.34,6.488-3.616,11.382-3.616c6.808,0,16.912,4.468,16.912,22.338v30.314h-9.147V182.29c0-9.893-3.616-15.85-11.169-15.85
		c-5.318,0-9.467,3.936-11.063,8.51c-0.425,1.276-0.744,2.979-0.744,4.681v31.804h-9.148v-30.847c0-8.19-3.616-14.147-10.743-14.147
		c-5.85,0-10.105,4.681-11.594,9.36c-0.532,1.383-0.745,2.979-0.745,4.574v31.06h-9.147V173.887z"/>
</g>
<g>
</g>
<g>
</g>
<g>
</g>
<g>
</g>
<g>
</g>
<g>
</g>
<g>
</g>
<g>
</g>
<g>
</g>
<g>
</g>
<g>
</g>
<g>
</g>
<g>
</g>
<g>
</g>
<g>
</g>
</svg>
